<svg width="14" height="16" viewBox="0 0 14 16" fill="none" xmlns="http://www.w3.org/2000/svg">
<path d="M8.92468 1.46867L9.62283 0.209093C9.63176 0.192953 9.63742 0.175213 9.63949 0.156884C9.64157 0.138556 9.64001 0.119998 9.63491 0.102272C9.62981 0.0845449 9.62127 0.067996 9.60978 0.0535697C9.59828 0.0391435 9.58406 0.0271225 9.56792 0.018193C9.55178 0.00926351 9.53404 0.00360045 9.51571 0.00152717C9.49738 -0.000546114 9.47883 0.00101099 9.4611 0.00610954C9.44337 0.0112081 9.42682 0.0197482 9.4124 0.0312424C9.39797 0.0427365 9.38595 0.0569596 9.37702 0.0730995L8.6716 1.34577C8.06941 1.08174 7.41903 0.945428 6.76151 0.945428C6.10398 0.945428 5.4536 1.08174 4.85141 1.34577L4.14599 0.0730995C4.12796 0.0403107 4.09764 0.0160286 4.0617 0.00559527C4.02576 -0.00483809 3.98715 -0.000568175 3.95436 0.0174657C3.92157 0.0354996 3.89729 0.0658202 3.88686 0.101757C3.87642 0.137694 3.8807 0.176304 3.89873 0.209093L4.59688 1.46867C3.93261 1.79629 3.37138 2.30049 2.97473 2.92599C2.57809 3.55149 2.36134 4.27414 2.34826 5.01469H11.1748C11.1615 4.27399 10.9446 3.55124 10.5477 2.92572C10.1507 2.3002 9.58922 1.79608 8.92468 1.46867ZM4.72487 3.39949C4.65192 3.39949 4.5806 3.37785 4.51995 3.3373C4.4593 3.29675 4.41204 3.23913 4.38416 3.17171C4.35627 3.1043 4.34902 3.03012 4.3633 2.95858C4.37759 2.88704 4.41278 2.82134 4.46441 2.76981C4.51605 2.71827 4.58182 2.68321 4.65339 2.66907C4.72496 2.65492 4.79912 2.66233 4.86648 2.69035C4.93384 2.71836 4.99137 2.76574 5.0318 2.82647C5.07222 2.8872 5.09373 2.95855 5.09358 3.03151C5.09339 3.12917 5.05446 3.22277 4.98533 3.29176C4.91621 3.36075 4.82253 3.39949 4.72487 3.39949ZM8.79887 3.39949C8.72591 3.39949 8.6546 3.37785 8.59395 3.3373C8.5333 3.29675 8.48604 3.23913 8.45815 3.17171C8.43027 3.1043 8.42301 3.03012 8.43729 2.95858C8.45158 2.88704 8.48677 2.82134 8.53841 2.76981C8.59004 2.71827 8.65581 2.68321 8.72738 2.66907C8.79895 2.65492 8.87311 2.66233 8.94047 2.69035C9.00783 2.71836 9.06536 2.76574 9.10579 2.82647C9.14622 2.8872 9.16772 2.95855 9.16758 3.03151C9.16738 3.12917 9.12845 3.22277 9.05933 3.29176C8.9902 3.36075 8.89653 3.39949 8.79887 3.39949ZM2.3468 11.7606C2.34661 11.901 2.37414 12.04 2.4278 12.1698C2.48147 12.2995 2.56021 12.4174 2.65953 12.5167C2.75885 12.6159 2.87678 12.6946 3.00657 12.7482C3.13635 12.8017 3.27543 12.8292 3.41584 12.8289H4.12345V15.0106C4.12345 15.273 4.22769 15.5247 4.41324 15.7102C4.59879 15.8958 4.85045 16 5.11285 16C5.37526 16 5.62692 15.8958 5.81247 15.7102C5.99802 15.5247 6.10226 15.273 6.10226 15.0106V12.8289H7.42148V15.0106C7.42148 15.2729 7.52568 15.5245 7.71116 15.71C7.89664 15.8954 8.14821 15.9996 8.41052 15.9996C8.67283 15.9996 8.9244 15.8954 9.10988 15.71C9.29536 15.5245 9.39957 15.2729 9.39957 15.0106V12.8289H10.1079C10.2481 12.829 10.387 12.8014 10.5166 12.7478C10.6461 12.6942 10.7639 12.6156 10.863 12.5164C10.9622 12.4172 11.0408 12.2995 11.0944 12.1699C11.148 12.0404 11.1756 11.9015 11.1755 11.7613V5.36376H2.3468V11.7606ZM0.989045 5.19359C0.726726 5.19397 0.475272 5.2984 0.289853 5.48396C0.104434 5.66951 0.000192316 5.92104 0 6.18336V10.3061C-1.93541e-09 10.436 0.0255823 10.5646 0.0752865 10.6846C0.124991 10.8046 0.197843 10.9136 0.289685 11.0054C0.381526 11.0973 0.490557 11.1701 0.610554 11.2198C0.73055 11.2695 0.859162 11.2951 0.989045 11.2951C1.11893 11.2951 1.24754 11.2695 1.36754 11.2198C1.48753 11.1701 1.59656 11.0973 1.68841 11.0054C1.78025 10.9136 1.8531 10.8046 1.9028 10.6846C1.95251 10.5646 1.97809 10.436 1.97809 10.3061V6.18336C1.97771 5.92117 1.87338 5.66983 1.68798 5.48443C1.50258 5.29903 1.25124 5.1947 0.989045 5.19432V5.19359ZM12.5318 5.19359C12.2695 5.19397 12.018 5.2984 11.8326 5.48396C11.6472 5.66951 11.5429 5.92104 11.5427 6.18336V10.3061C11.5427 10.436 11.5683 10.5646 11.618 10.6846C11.6677 10.8046 11.7406 10.9136 11.8324 11.0054C11.9243 11.0973 12.0333 11.1701 12.1533 11.2198C12.2733 11.2695 12.4019 11.2951 12.5318 11.2951C12.6617 11.2951 12.7903 11.2695 12.9103 11.2198C13.0303 11.1701 13.1393 11.0973 13.2311 11.0054C13.323 10.9136 13.3958 10.8046 13.4455 10.6846C13.4952 10.5646 13.5208 10.436 13.5208 10.3061V6.18336C13.5204 5.92117 13.4161 5.66983 13.2307 5.48443C13.0453 5.29903 12.794 5.1947 12.5318 5.19432V5.19359Z" fill="#fff"/>
</svg>
