<svg width="18" height="19" viewBox="0 0 18 19" fill="none" xmlns="http://www.w3.org/2000/svg">
    <path
        d="M16.8449 8.77022H3.94187L9.57899 2.98798C10.0295 2.52587 10.0295 1.76754 9.57899 1.30544C9.47212 1.19559 9.34518 1.10845 9.20544 1.04899C9.0657 0.989529 8.91589 0.958923 8.76461 0.958923C8.61332 0.958923 8.46352 0.989529 8.32378 1.04899C8.18403 1.10845 8.0571 1.19559 7.95023 1.30544L0.337816 9.11384C0.23073 9.22346 0.145771 9.35367 0.0878046 9.497C0.0298377 9.64034 0 9.794 0 9.94919C0 10.1044 0.0298377 10.258 0.0878046 10.4014C0.145771 10.5447 0.23073 10.6749 0.337816 10.7845L7.95023 18.5929C8.05717 18.7026 8.18414 18.7897 8.32387 18.849C8.4636 18.9084 8.61336 18.9389 8.76461 18.9389C8.91585 18.9389 9.06561 18.9084 9.20535 18.849C9.34508 18.7897 9.47204 18.7026 9.57899 18.5929C9.68593 18.4832 9.77076 18.353 9.82864 18.2097C9.88652 18.0663 9.91631 17.9127 9.91631 17.7576C9.91631 17.6025 9.88652 17.4488 9.82864 17.3055C9.77076 17.1622 9.68593 17.0319 9.57899 16.9222L3.94187 11.14H16.8449C17.4802 11.14 18 10.6068 18 9.95511C18 9.30342 17.4802 8.77022 16.8449 8.77022Z"
        fill="#000" />
</svg>