<svg width="18" height="18" viewBox="0 0 18 18" fill="none" xmlns="http://www.w3.org/2000/svg">
    <path d="M16.5 12V16.5H12" fill="#FFF" />
    <path d="M16.5 12V16.5H12" stroke="#FFF" stroke-width="2.25" stroke-linecap="round" stroke-linejoin="round" />
    <path d="M16.5005 16.4497L11.5508 11.5L16.5005 16.4497Z" fill="#FFF" />
    <path d="M16.5005 16.4497L11.5508 11.5" stroke="#FFF" stroke-width="2.25" stroke-linecap="round"
        stroke-linejoin="round" />
    <path d="M6 16.5H1.5V12" fill="#FFF" />
    <path d="M6 16.5H1.5V12" stroke="#FFF" stroke-width="2.25" stroke-linecap="round" stroke-linejoin="round" />
    <path d="M1.5 16.4497L6.5 11.5L1.5 16.4497Z" fill="#FFF" />
    <path d="M1.5 16.4497L6.5 11.5" stroke="#FFF" stroke-width="2.25" stroke-linecap="round" stroke-linejoin="round" />
    <path d="M12 1.5H16.5V6" fill="#FFF" />
    <path d="M12 1.5H16.5V6" stroke="#FFF" stroke-width="2.25" stroke-linecap="round" stroke-linejoin="round" />
    <path d="M16.4498 1.5L11.5 6.44975L16.4498 1.5Z" fill="#FFF" />
    <path d="M16.4498 1.5L11.5 6.44975" stroke="#FFF" stroke-width="2.25" stroke-linecap="round"
        stroke-linejoin="round" />
    <path d="M1.5 6V1.5H6" fill="#FFF" />
    <path d="M1.5 6V1.5H6" stroke="#FFF" stroke-width="2.25" stroke-linecap="round" stroke-linejoin="round" />
    <path d="M1.5 1.5L6.5 6.44975L1.5 1.5Z" fill="#FFF" />
    <path d="M1.5 1.5L6.5 6.44975" stroke="#FFF" stroke-width="2.25" stroke-linecap="round" stroke-linejoin="round" />
</svg>