<svg width="22" height="18" viewBox="0 0 22 18" fill="none" xmlns="http://www.w3.org/2000/svg">
    <path
        d="M10.1921 3.14842L10.9981 3.97606L11.8041 3.14842C12.7089 2.21931 14.1345 1.125 15.6477 1.125C17.1089 1.125 18.279 1.62065 19.0789 2.404C19.8771 3.18568 20.375 4.32014 20.375 5.73093C20.375 7.25579 19.7717 8.54258 18.7726 9.7643C17.7517 11.0125 16.38 12.1206 14.9144 13.2986C14.9144 13.2987 14.9143 13.2987 14.9142 13.2988L14.8876 13.3202C13.5825 14.3688 12.1413 15.5267 10.9986 16.8243C9.8672 15.5376 8.43944 14.3888 7.1456 13.3477L7.0853 13.2992L7.08484 13.2988C5.6188 12.1203 4.24721 11.0119 3.22672 9.76373C2.2279 8.54205 1.625 7.25545 1.625 5.73093C1.625 4.32015 2.12289 3.18571 2.92116 2.40405C3.72113 1.6207 4.89147 1.125 6.35327 1.125C7.86489 1.125 9.28645 2.2184 10.1921 3.14842Z"
        stroke="#fff" stroke-width="2.25" />
</svg>