<svg width="14" height="12" viewBox="0 0 14 12" fill="none" xmlns="http://www.w3.org/2000/svg">
<path d="M6.46141 2.09895L6.99873 2.6507L7.53604 2.09895C8.13923 1.47954 9.08964 0.75 10.0985 0.75C11.0726 0.75 11.8527 1.08043 12.3859 1.60267C12.9181 2.12379 13.25 2.8801 13.25 3.82062C13.25 4.83719 12.8478 5.69506 12.1817 6.50953C11.5012 7.34166 10.5867 8.08039 9.60961 8.86576C9.60957 8.86579 9.60953 8.86582 9.60949 8.86586L9.59174 8.88012C8.72165 9.57919 7.76087 10.3511 6.99909 11.2162C6.2448 10.3584 5.29296 9.59251 4.4304 8.89847L4.3902 8.86612L4.3899 8.86587C3.41253 8.08021 2.49814 7.34129 1.81781 6.50916C1.15194 5.6947 0.75 4.83697 0.75 3.82062C0.75 2.8801 1.08193 2.12381 1.6141 1.6027C2.14742 1.08047 2.92765 0.75 3.90218 0.75C4.90993 0.75 5.85763 1.47894 6.46141 2.09895Z" fill="#FBD800" stroke="#6500B6" stroke-width="2"/>
</svg>
