<svg width="35" height="25" viewBox="0 0 35 25" fill="none" xmlns="http://www.w3.org/2000/svg">
<path d="M0 0H28C31.866 0 35 3.13401 35 7V25H7C3.13401 25 0 21.866 0 18V0Z" fill="#F09E36"/>
<path fill-rule="evenodd" clip-rule="evenodd" d="M10.1 6H8V11.2V13.28V19H10.1V13.28L14.3 13.28V19H16.4V13.28V11.2V6H14.3V11.2L10.1 11.2V6ZM19.55 6H21.65H27.95V8.08L21.65 8.08V10.68H24.8C27.1196 10.68 29 12.5425 29 14.84C29 17.1375 27.1196 19 24.8 19H21.65H19.55V16.92H24.8C25.9598 16.92 26.9 15.9888 26.9 14.84C26.9 13.6912 25.9598 12.76 24.8 12.76H19.55V10.68V8.08V6Z" fill="white"/>
</svg>
