<svg width="45" height="30" viewBox="0 0 45 30" fill="none" xmlns="http://www.w3.org/2000/svg">
<path fill-rule="evenodd" clip-rule="evenodd" d="M6 13L4 4.33333V1H8V11L12 11V13L6 13ZM0 3L3 0H9V10L12 10V3L15 0H21V27L18 30H12V19H9V27L6 30H0V3ZM20 1V22.6667L16 4.33333V1H20ZM6 19H8V24.6667L6 19ZM25 0H43V6L40.043 9.95702C42.5614 11.2254 44.4024 13.6418 44.8787 16.5189C44.9582 16.9678 45 17.4601 45 18C45 25 37.9706 30 33 30H22V24L25 21H36C36 19.3431 34.6569 18 33 18H22V3L25 0ZM35.8293 22H27.6667L33 24C34.3062 24 35.4175 23.1652 35.8293 22ZM42.0843 12.8054C40.617 11.0884 38.4356 10 36 10H30H28V12H33C33.5399 12 34.1041 11.9882 34.6809 11.9761C37.2385 11.9227 40.0448 11.864 42.0843 12.8054ZM40 5H42V1H28L40 5Z" fill="black"/>
<path fill-rule="evenodd" clip-rule="evenodd" d="M8 1H4V11V15V26H8V15L16 15V26H20V15V11V1H16V11L8 11V1ZM26 1H30H42V5L30 5V10H36C40.4183 10 44 13.5817 44 18C44 22.4183 40.4183 26 36 26H30H26V22H36C38.2091 22 40 20.2091 40 18C40 15.7909 38.2091 14 36 14H26V10V5V1Z" fill="white"/>
</svg>
