<svg width="29" height="29" viewBox="0 0 29 29" fill="none" xmlns="http://www.w3.org/2000/svg">
<mask id="mask0_695_14" style="mask-type:alpha" maskUnits="userSpaceOnUse" x="0" y="0" width="29" height="29">
<path d="M10.45 1H2.35C1.99196 1 1.64858 1.14223 1.39541 1.39541C1.14223 1.64858 1 1.99196 1 2.35V10.45C1 10.808 1.14223 11.1514 1.39541 11.4046C1.64858 11.6578 1.99196 11.8 2.35 11.8H10.45C10.808 11.8 11.1514 11.6578 11.4046 11.4046C11.6578 11.1514 11.8 10.808 11.8 10.45V2.35C11.8 1.99196 11.6578 1.64858 11.4046 1.39541C11.1514 1.14223 10.808 1 10.45 1ZM10.45 17.2H2.35C1.99196 17.2 1.64858 17.3422 1.39541 17.5954C1.14223 17.8486 1 18.192 1 18.55V26.65C1 27.008 1.14223 27.3514 1.39541 27.6046C1.64858 27.8578 1.99196 28 2.35 28H10.45C10.808 28 11.1514 27.8578 11.4046 27.6046C11.6578 27.3514 11.8 27.008 11.8 26.65V18.55C11.8 18.192 11.6578 17.8486 11.4046 17.5954C11.1514 17.3422 10.808 17.2 10.45 17.2ZM26.65 1H18.55C18.192 1 17.8486 1.14223 17.5954 1.39541C17.3422 1.64858 17.2 1.99196 17.2 2.35V10.45C17.2 10.808 17.3422 11.1514 17.5954 11.4046C17.8486 11.6578 18.192 11.8 18.55 11.8H26.65C27.008 11.8 27.3514 11.6578 27.6046 11.4046C27.8578 11.1514 28 10.808 28 10.45V2.35C28 1.99196 27.8578 1.64858 27.6046 1.39541C27.3514 1.14223 27.008 1 26.65 1Z" fill="#FBD800" stroke="#FBD800" stroke-width="2" stroke-linejoin="round"/>
<path d="M28 17.2H17.2M22.6 22.6H17.2M28 28H17.2" stroke="#FBD800" stroke-width="2" stroke-linecap="round" stroke-linejoin="round"/>
</mask>
<g mask="url(#mask0_695_14)">
<path d="M-1.69971 -1.70001H30.7003V30.7H-1.69971V-1.70001Z" fill="#FBD800"/>
</g>
</svg>
