<svg width="34" height="34" viewBox="0 0 34 34" fill="none" xmlns="http://www.w3.org/2000/svg">
<g id="icon1" clip-path="url(#clip0_1324_2206)">
<path id="Vector" d="M13.1755 -0.140137H14.6326C16.9317 0.650083 18.0002 2.54581 17.8383 5.54705C17.8334 5.63041 17.8452 5.71392 17.8731 5.79277C17.901 5.87162 17.9444 5.94427 18.0008 6.00656C18.0572 6.06885 18.1255 6.11955 18.2018 6.15575C18.2781 6.19196 18.3609 6.21295 18.4455 6.21754C20.7931 6.37718 22.4324 6.40911 23.3633 6.31332C28.9005 5.77454 27.3341 11.6533 27.4433 14.7304C27.4595 15.3051 27.7591 15.6124 28.3419 15.6523C31.2643 15.8678 33.1505 16.9134 34.0005 18.7892V20.8246C33.11 23.0516 31.2886 24.0414 28.5362 23.7939C28.3812 23.7782 28.2246 23.7957 28.0771 23.8453C27.9296 23.8948 27.7947 23.9752 27.6816 24.081C27.5686 24.1868 27.4801 24.3154 27.4222 24.458C27.3643 24.6007 27.3384 24.754 27.3462 24.9074C27.5041 27.9246 28.5241 31.6722 25.3062 33.3843H18.8583C18.1783 33.0571 17.9476 32.5662 18.1662 31.9117C18.2876 31.5365 18.3241 31.1494 18.2755 30.7503C18.0569 28.9663 17.3041 27.6133 15.4341 27.0746C11.3136 25.8932 9.22906 27.9965 9.18049 33.3843H2.48977C1.23501 32.8974 0.40525 32.1551 0.000488281 31.1574V24.3567C1.53049 24.0095 3.02406 24.4644 4.38406 23.7939C6.06787 22.9478 6.91382 21.6548 6.92192 19.9147C6.93811 16.4106 4.63096 14.8381 0.000488281 15.1973V7.78601C2.27525 6.40512 5.11668 5.94216 8.52477 6.39714C8.71383 6.41921 8.90412 6.37095 9.05733 6.2621C9.21054 6.15324 9.31529 5.99186 9.35049 5.81046C9.82406 3.33204 10.2855 0.410623 13.1755 -0.140137Z" fill="black"/>
</g>
<defs>
<clipPath id="clip0_1324_2206">
<rect width="34" height="33.5245" fill="white" transform="translate(0 -0.140137)"/>
</clipPath>
</defs>
</svg>
