<svg width="63" height="63" viewBox="0 0 63 63" fill="none" xmlns="http://www.w3.org/2000/svg">
<rect x="2" y="9" width="61" height="54" rx="7" fill="black"/>
<rect x="0.5" y="0.5" width="60" height="53" rx="6.5" fill="#FF05B0" stroke="black"/>
<path d="M21.6426 10.6427C21.8448 10.4389 22.0849 10.2773 22.3493 10.167C22.6138 10.0568 22.8972 10 23.1835 10C23.4698 10 23.7533 10.0568 24.0177 10.167C24.2821 10.2773 24.5223 10.4389 24.7245 10.6427L39.3678 25.3602C39.5292 25.5221 39.6572 25.7144 39.7446 25.9261C39.832 26.1378 39.877 26.3647 39.877 26.5939C39.877 26.8231 39.832 27.05 39.7446 27.2618C39.6572 27.4735 39.5292 27.6658 39.3678 27.8277L24.7245 42.5452C23.8713 43.4027 22.4958 43.4027 21.6426 42.5452C20.7894 41.6877 20.7894 40.3052 21.6426 39.4477L34.4228 26.6027L21.6252 13.7402C20.7894 12.8827 20.7894 11.5002 21.6426 10.6427Z" fill="white"/>
</svg>
