<svg width="63" height="63" viewBox="0 0 63 63" fill="none" xmlns="http://www.w3.org/2000/svg">
<rect x="2" y="9" width="61" height="54" rx="7" fill="black"/>
<rect x="0.5" y="0.5" width="60" height="53" rx="6.5" fill="#FF05B0" stroke="black"/>
<path d="M37.2344 10.6427C37.0322 10.4389 36.792 10.2773 36.5276 10.167C36.2632 10.0568 35.9797 10 35.6934 10C35.4072 10 35.1237 10.0568 34.8593 10.167C34.5948 10.2773 34.3547 10.4389 34.1525 10.6427L19.5092 25.3602C19.3478 25.5221 19.2197 25.7144 19.1323 25.9261C19.045 26.1378 19 26.3647 19 26.5939C19 26.8231 19.045 27.05 19.1323 27.2618C19.2197 27.4735 19.3478 27.6658 19.5092 27.8277L34.1525 42.5452C35.0057 43.4027 36.3812 43.4027 37.2344 42.5452C38.0875 41.6877 38.0875 40.3052 37.2344 39.4477L24.4541 26.6027L37.2518 13.7402C38.0875 12.8827 38.0875 11.5002 37.2344 10.6427Z" fill="white"/>
</svg>
