<svg width="18" height="18" viewBox="0 0 18 18" fill="none" xmlns="http://www.w3.org/2000/svg">
<g id="Vector">
<path d="M9 1.8C10.424 1.80002 11.816 2.2223 13.0001 3.01345C14.1841 3.8046 15.1069 4.92908 15.6518 6.24469C16.1968 7.56031 16.3394 9.00797 16.0616 10.4046C15.7838 11.8013 15.098 13.0842 14.0911 14.0911C12.7388 15.4316 10.9106 16.1819 9.00653 16.1777C7.10244 16.1735 5.27753 15.4153 3.93113 14.0689C2.58473 12.7225 1.82648 10.8976 1.82231 8.99347C1.81814 7.08938 2.56839 5.26116 3.90888 3.90888C4.5759 3.23821 5.36932 2.70649 6.24321 2.3445C7.1171 1.98251 8.05411 1.79744 9 1.8ZM9 0C4.02948 0 0 4.02948 0 9C0 13.9705 4.02948 18 9 18C13.9705 18 18 13.9705 18 9C18 4.02948 13.9705 0 9 0Z" fill="black"/>
<path d="M6.5 13.875C5.875 13.875 5.25 13.625 4.75 13.125C3.75 12.125 3.75 10.5625 4.75 9.5625L6.0625 8.25L6.9375 9.125L5.625 10.4375C5.125 10.9375 5.125 11.6875 5.625 12.1875C6.125 12.6875 6.875 12.6875 7.375 12.1875L9.125 10.4375C9.375 10.1875 9.5 9.875 9.5 9.5625C9.5 9.25 9.375 8.9375 9.1875 8.6875L8.5 8.0625L9.375 7.1875L10.0625 7.875C10.5 8.3125 10.75 8.9375 10.75 9.625C10.75 10.3125 10.5 10.9375 10 11.375L8.25 13.125C7.8125 13.625 7.125 13.875 6.5 13.875Z" fill="black"/>
<path d="M8.5 10.6875L7.8125 10.0625C6.8125 9.0625 6.8125 7.5 7.8125 6.5L9.5625 4.75C10.5625 3.75 12.125 3.75 13.125 4.75C14.125 5.75 14.125 7.3125 13.125 8.3125L11.8125 9.625L10.9375 8.75L12.25 7.4375C12.75 6.9375 12.75 6.1875 12.25 5.6875C11.75 5.1875 10.9375 5.1875 10.5 5.6875L8.6875 7.375C8.1875 7.875 8.1875 8.625 8.6875 9.125L9.375 9.8125L8.5 10.6875Z" fill="black"/>
</g>
</svg>
