<svg width="16" height="21" viewBox="0 0 16 21" fill="none" xmlns="http://www.w3.org/2000/svg">
<path d="M9.01454 0.581605C8.87868 0.451549 8.71848 0.349601 8.54312 0.28161C8.37212 0.206033 8.18722 0.166993 8.00026 0.166993C7.81331 0.166993 7.62841 0.206033 7.45741 0.28161C7.28205 0.349601 7.12184 0.451549 6.98598 0.581605L1.27173 6.2958C1.00272 6.5648 0.851599 6.92964 0.851599 7.31006C0.851599 7.69049 1.00272 8.05533 1.27173 8.32433C1.54073 8.59333 1.90558 8.74446 2.28601 8.74446C2.66644 8.74446 3.03128 8.59333 3.30029 8.32433L6.5717 5.03867L6.5717 18.7384C6.5717 19.1173 6.72221 19.4807 6.99011 19.7486C7.25802 20.0165 7.62138 20.167 8.00026 20.167C8.37914 20.167 8.7425 20.0165 9.01041 19.7486C9.27832 19.4807 9.42882 19.1173 9.42882 18.7384L9.42883 5.03867L12.7002 8.32433C12.8334 8.45753 12.9916 8.56319 13.1656 8.63527C13.3396 8.70736 13.5261 8.74446 13.7145 8.74446C13.9029 8.74446 14.0894 8.70736 14.2634 8.63527C14.4375 8.56319 14.5956 8.45753 14.7288 8.32433C14.862 8.19114 14.9677 8.03301 15.0397 7.85898C15.1118 7.68496 15.1489 7.49843 15.1489 7.31006C15.1489 7.1217 15.1118 6.93517 15.0397 6.76115C14.9677 6.58712 14.862 6.42899 14.7288 6.2958L9.01454 0.581605Z" fill="white"/>
</svg>
