<svg width="28" height="31" viewBox="0 0 28 31" fill="none" xmlns="http://www.w3.org/2000/svg">
<path d="M11.6934 31C9.38082 31 7.47357 30.75 5.97162 30.25C4.4935 29.7738 3.33724 29.1309 2.50282 28.3214C1.6684 27.5119 1.0843 26.5833 0.750535 25.5357C0.440608 24.4881 0.285645 23.4047 0.285645 22.2857V5.67853C0.285645 5.36901 0.321405 5.10711 0.392927 4.89282C0.488289 4.67854 0.619412 4.49996 0.786296 4.35711L5.39945 0.464251C5.51865 0.369013 5.67361 0.297584 5.86434 0.249964C6.0789 0.178536 6.30539 0.142822 6.54379 0.142822H12.1582C12.7304 0.142822 13.1476 0.273774 13.4099 0.535679C13.6721 0.797584 13.8032 1.21425 13.8032 1.78568V18.0714C13.8032 18.2857 13.839 18.4881 13.9105 18.6785C13.982 18.8452 14.137 18.9762 14.3754 19.0714V5.67853C14.3754 5.36901 14.4112 5.10711 14.4827 4.89282C14.5542 4.67854 14.6615 4.51187 14.8045 4.39282L14.8403 4.35711L19.4892 0.464251C19.6084 0.369013 19.7634 0.297584 19.9541 0.249964C20.1448 0.178536 20.3713 0.142822 20.6336 0.142822H26.0692C26.6414 0.142822 27.0586 0.273774 27.3208 0.535679C27.5831 0.797584 27.7142 1.21425 27.7142 1.78568V19.4643C27.7142 20.5595 27.5592 21.5714 27.2493 22.5C26.9394 23.4285 26.3791 24.2262 25.5686 24.8928L20.9197 28.75C20.0852 29.4643 18.929 30.0119 17.4508 30.3928C15.9727 30.7976 14.0536 31 11.6934 31ZM27.3566 19.4643V1.78568C27.3566 1.3333 27.2493 1.01187 27.0348 0.821393C26.844 0.607108 26.5222 0.499965 26.0692 0.499965H20.6336C20.1806 0.499965 19.8468 0.607108 19.6323 0.821393C19.4415 1.01187 19.3462 1.3333 19.3462 1.78568V18.0714C19.3462 18.5476 19.1674 18.9523 18.8098 19.2857C18.4522 19.5952 17.6416 19.75 16.378 19.75C15.1383 19.75 14.3397 19.5952 13.982 19.2857C13.6244 18.9523 13.4456 18.5476 13.4456 18.0714V1.78568C13.4456 1.3333 13.3384 1.01187 13.1238 0.821393C12.9331 0.607108 12.6112 0.499965 12.1582 0.499965H6.54379C6.09082 0.499965 5.75705 0.607108 5.54249 0.821393C5.35176 1.01187 5.2564 1.3333 5.2564 1.78568V19.4643C5.2564 20.5595 5.41136 21.5595 5.72129 22.4642C6.05506 23.3452 6.62723 24.1071 7.43781 24.75C8.27223 25.369 9.40466 25.8571 10.8351 26.2143C12.2655 26.5714 14.0893 26.75 16.3065 26.75C18.5237 26.75 20.3475 26.5714 21.7779 26.2143C23.2083 25.8571 24.3288 25.369 25.1394 24.75C25.9738 24.1071 26.546 23.3452 26.8559 22.4642C27.1897 21.5595 27.3566 20.5595 27.3566 19.4643ZM9.19009 9.42853H9.5477V18.6071C9.5477 19.9404 10.0126 21.0238 10.9424 21.8571C11.896 22.6666 13.696 23.0714 16.3423 23.0714C18.9886 23.0714 20.7885 22.6666 21.7421 21.8571C22.6958 21.0238 23.1726 19.9404 23.1726 18.6071V9.42853H23.5302V18.6071C23.5302 20.0357 23.0295 21.2023 22.0282 22.1071C21.0269 22.9881 19.1316 23.4285 16.3423 23.4285C13.5529 23.4285 11.6576 22.9881 10.6563 22.1071C9.67882 21.2023 9.19009 20.0357 9.19009 18.6071V9.42853Z" fill="black"/>
<path fill-rule="evenodd" clip-rule="evenodd" d="M10.4828 3.27139V4.77996H12.0142V6.97996H10.4828V8.44282H8.28283L8.28283 6.97996H6.84279V4.77996H8.28283L8.28283 3.27139H10.4828ZM8.58283 5.07996H7.14279V6.67996H8.58283V8.14282H10.1828V6.67996H11.7142V5.07996H10.1828V3.57139H8.58283L8.58283 5.07996Z" fill="black"/>
<path fill-rule="evenodd" clip-rule="evenodd" d="M22.9856 6.54288C22.9856 7.21351 22.442 7.75716 21.7714 7.75716C21.1007 7.75716 20.5571 7.21351 20.5571 6.54288C20.5571 5.87225 21.1007 5.32859 21.7714 5.32859C22.442 5.32859 22.9856 5.87225 22.9856 6.54288ZM21.7714 7.45716C22.2763 7.45716 22.6856 7.04782 22.6856 6.54288C22.6856 6.03793 22.2763 5.62859 21.7714 5.62859C21.2664 5.62859 20.8571 6.03793 20.8571 6.54288C20.8571 7.04782 21.2664 7.45716 21.7714 7.45716Z" fill="black"/>
<path fill-rule="evenodd" clip-rule="evenodd" d="M26.1854 5.28562C26.1854 5.95625 25.6418 6.49991 24.9711 6.49991C24.3005 6.49991 23.7568 5.95625 23.7568 5.28562C23.7568 4.61499 24.3005 4.07134 24.9711 4.07134C25.6418 4.07134 26.1854 4.61499 26.1854 5.28562ZM24.9711 6.19991C25.4761 6.19991 25.8854 5.79057 25.8854 5.28562C25.8854 4.78068 25.4761 4.37134 24.9711 4.37134C24.4662 4.37134 24.0569 4.78068 24.0569 5.28562C24.0569 5.79057 24.4662 6.19991 24.9711 6.19991Z" fill="black"/>
</svg>
