<svg width="34" height="40" viewBox="0 0 34 40" fill="none" xmlns="http://www.w3.org/2000/svg">
<path d="M0.703551 16.3924C-0.049782 12.6791 0.773552 9.58574 3.17355 7.11241C6.60355 3.58241 14.9235 1.9424 20.0735 0.322397C24.0235 -0.917603 26.2335 1.5724 27.4735 5.1724C29.3869 10.7524 31.2136 16.3624 32.9536 22.0024C35.0836 28.8824 31.5536 33.9724 25.1736 36.3124C20.9069 37.8857 17.2136 38.9757 14.0936 39.5824C9.98355 40.3824 7.87354 38.2524 6.49354 34.4724C3.30688 25.7924 1.37688 19.7657 0.703551 16.3924ZM19.1436 1.84242L7.17355 5.66242C6.44393 5.89533 5.76734 6.2697 5.18246 6.76417C4.59758 7.25864 4.11586 7.86352 3.76483 8.54423C3.4138 9.22494 3.20033 9.96813 3.13663 10.7314C3.07292 11.4946 3.16023 12.2629 3.39355 12.9924L9.17355 31.1024C9.41961 31.8733 9.82279 32.5857 10.3601 33.199C10.8973 33.8122 11.5582 34.3143 12.3048 34.6765C13.0514 35.0387 13.8693 35.2539 14.7115 35.3098C15.5538 35.3657 16.404 35.2613 17.2135 35.0024L27.9635 31.5724C29.5968 31.0505 30.966 29.9327 31.7704 28.4646C32.5748 26.9964 32.7485 25.298 32.2535 23.7424L26.4735 5.63239C26.2417 4.90187 25.868 4.22425 25.374 3.63828C24.88 3.05232 24.2752 2.56953 23.5944 2.21751C22.9136 1.86549 22.1701 1.65116 21.4063 1.5868C20.6426 1.52244 19.8737 1.6093 19.1436 1.84242ZM2.44354 17.3524L7.28355 31.7924C7.73689 35.7657 9.30355 37.8724 11.9836 38.1124L14.0336 38.0324L23.0735 35.4324C23.9535 35.4124 24.6902 35.1291 25.2836 34.5824C26.4436 34.4624 27.3602 34.0857 28.0336 33.4524C28.4069 33.1057 28.3436 32.9691 27.8436 33.0424C26.9569 33.1757 26.1136 33.5324 25.3136 34.1124C23.8802 34.0124 23.0069 34.2891 22.6935 34.9424C22.5735 35.1291 22.3202 35.1757 21.9335 35.0824C21.7164 35.0297 21.494 35.0263 21.2836 35.0724L14.0235 36.7924L11.8535 36.3124C10.0002 35.4058 8.70355 33.7824 7.96355 31.4424L3.06355 16.8124L2.39355 13.6124C2.22689 12.8124 2.08687 12.8191 1.97354 13.6324C1.81354 14.7857 1.97021 16.0257 2.44354 17.3524Z" fill="#010101"/>
<path d="M19.1438 1.84261C19.874 1.6095 20.6429 1.52264 21.4066 1.587C22.1703 1.65136 22.9139 1.86569 23.5947 2.21771C24.2755 2.56972 24.8802 3.05251 25.3743 3.63848C25.8683 4.22445 26.2419 4.90207 26.4738 5.63259L32.2538 23.7426C32.7488 25.2982 32.5751 26.9966 31.7707 28.4648C30.9663 29.9329 29.5971 31.0507 27.9638 31.5726L17.2138 35.0026C16.4043 35.2615 15.5541 35.3659 14.7118 35.31C13.8695 35.2541 13.0517 35.0389 12.3051 34.6767C11.5584 34.3145 10.8976 33.8124 10.3603 33.1992C9.82306 32.5859 9.41988 31.8735 9.17383 31.1026L3.39383 12.9926C3.1605 12.2631 3.0732 11.4948 3.1369 10.7316C3.20061 9.96832 3.41407 9.22514 3.76511 8.54443C4.11614 7.86372 4.59786 7.25884 5.18274 6.76437C5.76762 6.26989 6.44421 5.89552 7.17383 5.66262L19.1438 1.84261ZM18.2021 3.8774C18.1328 3.66012 17.6387 3.5882 16.8286 3.67745C16.0185 3.7667 14.9587 4.00979 13.8823 4.3533C13.3494 4.52339 12.8284 4.71302 12.3491 4.91134C11.8699 5.10966 11.4418 5.3128 11.0892 5.50915C10.7366 5.7055 10.4665 5.8912 10.2943 6.05569C10.1221 6.22018 10.0512 6.36021 10.0855 6.4678C10.1549 6.68508 10.649 6.75703 11.4591 6.66778C12.2692 6.57853 13.329 6.33541 14.4053 5.99191C14.9383 5.82181 15.4593 5.63221 15.9385 5.43389C16.4178 5.23557 16.8459 5.03243 17.1985 4.83608C17.551 4.63973 17.8211 4.454 17.9933 4.28951C18.1655 4.12502 18.2365 3.98499 18.2021 3.8774ZM23.8614 5.07421C23.831 4.97777 23.7819 4.88825 23.7169 4.81078C23.6519 4.73332 23.5723 4.6694 23.4826 4.6227C23.3929 4.57601 23.2949 4.54742 23.1942 4.5386C23.0934 4.52978 22.992 4.54091 22.8955 4.57131L6.41522 9.76751C6.22046 9.82892 6.05807 9.96518 5.96378 10.1463C5.86948 10.3275 5.85101 10.5386 5.91242 10.7334L10.0862 23.971C10.1166 24.0674 10.1657 24.157 10.2307 24.2344C10.2957 24.3119 10.3753 24.3758 10.465 24.4225C10.5547 24.4692 10.6527 24.4978 10.7534 24.5066C10.8542 24.5154 10.9557 24.5043 11.0521 24.4739L27.5324 19.2777C27.7272 19.2163 27.8896 19.08 27.9839 18.8989C28.0781 18.7177 28.0966 18.5066 28.0352 18.3118L23.8614 5.07421ZM30.2338 23.8026C30.2338 23.2403 30.0105 22.7011 29.6129 22.3036C29.2153 21.906 28.6761 21.6826 28.1138 21.6826C27.5516 21.6826 27.0123 21.906 26.6148 22.3036C26.2172 22.7011 25.9938 23.2403 25.9938 23.8026C25.9938 24.3649 26.2172 24.9041 26.6148 25.3017C27.0123 25.6992 27.5516 25.9226 28.1138 25.9226C28.6761 25.9226 29.2153 25.6992 29.6129 25.3017C30.0105 24.9041 30.2338 24.3649 30.2338 23.8026ZM24.8638 25.5926C24.8638 25.041 24.6447 24.5119 24.2546 24.1218C23.8645 23.7317 23.3355 23.5126 22.7838 23.5126C22.2322 23.5126 21.7031 23.7317 21.313 24.1218C20.923 24.5119 20.7038 25.041 20.7038 25.5926C20.7038 26.1443 20.923 26.6733 21.313 27.0634C21.7031 27.4535 22.2322 27.6726 22.7838 27.6726C23.3355 27.6726 23.8645 27.4535 24.2546 27.0634C24.6447 26.6733 24.8638 26.1443 24.8638 25.5926ZM19.9838 29.3526C19.9838 28.1803 19.5182 27.0561 18.6892 26.2272C17.8603 25.3983 16.7361 24.9326 15.5638 24.9326C14.3916 24.9326 13.2673 25.3983 12.4384 26.2272C11.6095 27.0561 11.1438 28.1803 11.1438 29.3526C11.1438 29.933 11.2581 30.5078 11.4803 31.0441C11.7024 31.5803 12.028 32.0676 12.4384 32.478C12.8489 32.8885 13.3361 33.214 13.8724 33.4361C14.4086 33.6583 14.9834 33.7726 15.5638 33.7726C16.1443 33.7726 16.719 33.6583 17.2553 33.4361C17.7915 33.214 18.2788 32.8885 18.6892 32.478C19.0997 32.0676 19.4252 31.5803 19.6474 31.0441C19.8695 30.5078 19.9838 29.933 19.9838 29.3526ZM26.3838 29.5226C26.7105 29.7026 27.0438 29.7659 27.3838 29.7126C27.5887 29.6784 27.7763 29.5766 27.9167 29.4235C28.057 29.2703 28.142 29.0745 28.1581 28.8674C28.1742 28.6603 28.1205 28.4537 28.0055 28.2807C27.8906 28.1076 27.721 27.9781 27.5238 27.9126L26.9438 27.7326C26.5905 27.6193 26.3205 27.7226 26.1338 28.0426C26.0338 28.2226 25.9638 28.4059 25.9238 28.5926C25.8505 29.0126 26.0038 29.3226 26.3838 29.5226Z" fill="#FEEB01"/>
<path d="M14.405 5.99183C16.6464 5.27653 18.3463 4.32985 18.2019 3.87736C18.0575 3.42488 16.1234 3.63795 13.8821 4.35326C11.6407 5.06857 9.94079 6.01525 10.0852 6.46773C10.2296 6.92021 12.1636 6.70714 14.405 5.99183Z" fill="#FF05B0"/>
<path d="M28.0349 18.3118C28.0963 18.5066 28.0778 18.7177 27.9835 18.8989C27.8893 19.08 27.7269 19.2163 27.5321 19.2777L11.0518 24.4739C10.9554 24.5043 10.8539 24.5154 10.7531 24.5066C10.6524 24.4978 10.5544 24.4692 10.4647 24.4225C10.375 24.3758 10.2954 24.3119 10.2304 24.2344C10.1654 24.1569 10.1163 24.0674 10.0859 23.971L5.9121 10.7334C5.85069 10.5386 5.86917 10.3274 5.96346 10.1463C6.05776 9.96516 6.22015 9.8289 6.41491 9.76749L22.8952 4.57129C22.9917 4.54089 23.0931 4.52976 23.1939 4.53858C23.2946 4.54739 23.3926 4.57598 23.4823 4.62268C23.572 4.66938 23.6516 4.73329 23.7166 4.81076C23.7816 4.88823 23.8307 4.97775 23.8611 5.07419L28.0349 18.3118ZM22.7496 6.1738C22.7257 6.09792 22.6726 6.03463 22.602 5.9979C22.5315 5.96116 22.4492 5.95396 22.3733 5.97788L7.55251 10.6508C7.51493 10.6626 7.48005 10.6818 7.44987 10.7071C7.41968 10.7324 7.39479 10.7634 7.3766 10.7984C7.3584 10.8334 7.34726 10.8715 7.34384 10.9108C7.34041 10.9501 7.34475 10.9896 7.35661 11.0272L11.0974 22.8914C11.1213 22.9673 11.1744 23.0305 11.245 23.0673C11.3156 23.104 11.3978 23.1112 11.4737 23.0873L26.2945 18.4144C26.3321 18.4026 26.367 18.3834 26.3972 18.3581C26.4273 18.3327 26.4522 18.3017 26.4704 18.2668C26.4886 18.2318 26.4998 18.1936 26.5032 18.1544C26.5066 18.1151 26.5023 18.0756 26.4904 18.038L22.7496 6.1738Z" fill="#3D1AB6"/>
<path d="M26.4905 18.0379C26.5023 18.0754 26.5067 18.115 26.5033 18.1542C26.4998 18.1935 26.4887 18.2317 26.4705 18.2666C26.4523 18.3016 26.4274 18.3326 26.3972 18.3579C26.367 18.3833 26.3322 18.4024 26.2946 18.4143L11.4738 23.0872C11.3979 23.1111 11.3156 23.1039 11.2451 23.0671C11.1745 23.0304 11.1214 22.9671 11.0975 22.8913L7.35668 11.0271C7.34482 10.9895 7.34048 10.9499 7.34391 10.9107C7.34734 10.8714 7.35848 10.8332 7.37667 10.7983C7.39486 10.7633 7.41976 10.7323 7.44994 10.707C7.48013 10.6816 7.51501 10.6625 7.55259 10.6507L22.3734 5.97775C22.4493 5.95383 22.5315 5.96103 22.6021 5.99777C22.6727 6.0345 22.7258 6.09779 22.7497 6.17367L26.4905 18.0379ZM18.7236 15.4625C18.0969 15.9958 17.4603 16.3658 16.8136 16.5724C16.5136 16.6724 16.4102 16.8724 16.5036 17.1724C16.6369 17.5858 16.9003 17.9425 17.2936 18.2425C17.9336 19.5025 18.6469 19.6791 19.4336 18.7725C19.5336 17.8325 19.3536 16.8091 18.8936 15.7024C20.4536 15.6158 21.4702 15.5124 21.9436 15.3924C22.6169 15.2324 22.9103 14.8124 22.8236 14.1324C23.5036 13.8124 23.8036 13.1925 23.7236 12.2725C23.6236 11.0525 23.0903 9.93912 22.1236 8.93246C19.4769 8.01912 17.6536 8.81578 16.6536 11.3224C16.5309 11.632 16.5237 11.9732 16.6336 12.2825C17.0402 13.4758 17.7369 14.5358 18.7236 15.4625ZM16.0936 16.4925C16.3603 16.1058 16.5169 15.7225 16.5636 15.3425C16.5969 15.1091 16.4969 14.7391 16.2636 14.2324C16.0236 13.7058 15.8536 13.0525 15.7536 12.2725C15.7002 11.8658 15.4003 11.5858 14.8536 11.4325C10.4636 9.20246 7.76358 15.3725 11.5536 17.5625C13.3136 18.5758 14.8269 18.2191 16.0936 16.4925ZM24.0236 17.2024C24.0974 17.165 24.1602 17.1092 24.206 17.0403C24.2519 16.9714 24.2791 16.8919 24.2852 16.8094C24.2912 16.7269 24.2758 16.6442 24.2405 16.5694C24.2052 16.4946 24.1511 16.4302 24.0836 16.3824C23.4969 15.9691 23.1069 16.0458 22.9136 16.6125C22.8828 16.7028 22.8756 16.7994 22.8927 16.8933C22.9097 16.9873 22.9505 17.0756 23.0112 17.1502C23.0719 17.2249 23.1506 17.2834 23.2401 17.3205C23.3296 17.3575 23.4271 17.372 23.5236 17.3625C23.6769 17.3425 23.8436 17.2891 24.0236 17.2024ZM14.1636 20.1525C14.2969 19.7658 14.1636 19.5358 13.7636 19.4625L12.8836 19.2924C12.5303 19.2258 12.3303 19.3724 12.2836 19.7324C12.2103 20.3258 12.4536 20.7558 13.0136 21.0225C13.4936 21.2558 13.8769 20.9658 14.1636 20.1525Z" fill="#08BEB7"/>
<path d="M22.1237 8.93228C18.8137 10.8923 18.9537 14.3423 22.8237 14.1323C22.9103 14.8123 22.617 15.2323 21.9437 15.3923C21.4703 15.5123 20.4537 15.6156 18.8937 15.7023C19.2603 15.7756 19.2037 15.6956 18.7237 15.4623C17.737 14.5356 17.0403 13.4756 16.6337 12.2823C16.5238 11.973 16.5309 11.6318 16.6537 11.3223C17.6537 8.81559 19.477 8.01894 22.1237 8.93228Z" fill="white"/>
<path d="M22.1237 8.93262C23.0904 9.93928 23.6237 11.0526 23.7237 12.2726C23.8037 13.1926 23.5037 13.8126 22.8237 14.1326C18.9537 14.3426 18.8137 10.8926 22.1237 8.93262Z" fill="#6500B6"/>
<path d="M14.854 11.4324L13.234 12.6924C12.974 12.8924 12.814 13.1491 12.754 13.4624C12.334 15.5424 13.4473 16.5524 16.094 16.4924C14.8273 18.2191 13.314 18.5757 11.554 17.5624C7.76396 15.3724 10.464 9.2024 14.854 11.4324Z" fill="white"/>
<path d="M14.8538 11.4326C15.4004 11.586 15.7004 11.8659 15.7538 12.2726C15.8538 13.0526 16.0238 13.7059 16.2638 14.2326C16.4971 14.7393 16.5971 15.1093 16.5638 15.3426C16.5171 15.7226 16.3604 16.1059 16.0938 16.4926C13.4471 16.5526 12.3338 15.5426 12.7538 13.4626C12.8138 13.1493 12.9738 12.8926 13.2338 12.6926L14.8538 11.4326Z" fill="#3D1AB6"/>
<path d="M3.06373 16.8126C2.77706 16.666 2.57039 16.8459 2.44372 17.3526C1.97039 16.0259 1.81372 14.7859 1.97372 13.6326C2.08705 12.8193 2.22706 12.8126 2.39373 13.6126L3.06373 16.8126Z" fill="#6500B6"/>
<path d="M18.7239 15.4624C19.2039 15.6957 19.2606 15.7757 18.8939 15.7024C19.3539 16.8091 19.5339 17.8324 19.4339 18.7724C19.5339 18.0524 19.3439 17.5824 18.8639 17.3624C18.5573 17.2224 18.2839 17.2691 18.0439 17.5024L17.2939 18.2424C16.9006 17.9424 16.6373 17.5857 16.5039 17.1724C16.4106 16.8724 16.5139 16.6724 16.8139 16.5724C17.4606 16.3657 18.0973 15.9957 18.7239 15.4624Z" fill="#3D1AB6"/>
<path d="M24.0237 17.2026C23.8437 17.2893 23.677 17.3426 23.5237 17.3626C23.4272 17.3721 23.3297 17.3577 23.2402 17.3206C23.1507 17.2835 23.072 17.225 23.0113 17.1504C22.9506 17.0758 22.9099 16.9874 22.8928 16.8935C22.8758 16.7995 22.8829 16.7029 22.9137 16.6126C23.107 16.0459 23.497 15.9693 24.0837 16.3826C24.1512 16.4303 24.2053 16.4948 24.2406 16.5696C24.2759 16.6444 24.2913 16.7271 24.2853 16.8096C24.2793 16.8921 24.252 16.9716 24.2062 17.0405C24.1603 17.1093 24.0975 17.1652 24.0237 17.2026Z" fill="white"/>
<path d="M3.06386 16.8126L7.96385 31.4426C7.82385 31.8892 7.59719 32.0059 7.28386 31.7926L2.44385 17.3526C2.57051 16.8459 2.77719 16.6659 3.06386 16.8126Z" fill="#FF05B0"/>
<path d="M19.4339 18.7724C18.6473 19.6791 17.9339 19.5024 17.2939 18.2424L18.0439 17.5025C18.2839 17.2691 18.5573 17.2224 18.8639 17.3624C19.3439 17.5824 19.5339 18.0524 19.4339 18.7724Z" fill="#EE05A5"/>
<path d="M14.1637 20.1525C13.8771 20.9658 13.4937 21.2558 13.0137 21.0225C12.4537 20.7558 12.2104 20.3258 12.2837 19.7325C12.3304 19.3725 12.5304 19.2258 12.8837 19.2925L13.7637 19.4625C14.1637 19.5358 14.2971 19.7658 14.1637 20.1525Z" fill="#EAF1FE"/>
<path d="M30.2337 23.8026C30.2337 24.3649 30.0103 24.9041 29.6127 25.3017C29.2151 25.6992 28.6759 25.9226 28.1136 25.9226C27.5514 25.9226 27.0122 25.6992 26.6146 25.3017C26.217 24.9041 25.9937 24.3649 25.9937 23.8026C25.9937 23.2404 26.217 22.7011 26.6146 22.3036C27.0122 21.906 27.5514 21.6826 28.1136 21.6826C28.6759 21.6826 29.2151 21.906 29.6127 22.3036C30.0103 22.7011 30.2337 23.2404 30.2337 23.8026ZM28.9237 23.5426C28.8437 23.2559 28.6836 23.0693 28.4436 22.9826C28.2303 22.9026 28.0037 22.9393 27.7637 23.0926C27.477 23.2726 27.3003 23.4893 27.2337 23.7426C27.1403 24.0893 27.2537 24.3459 27.5737 24.5126C27.987 24.7193 28.347 24.6926 28.6537 24.4326C28.9337 24.1926 29.0237 23.8959 28.9237 23.5426Z" fill="#6500B6"/>
<path d="M28.9238 23.5425C29.0238 23.8959 28.9338 24.1926 28.6538 24.4326C28.3471 24.6926 27.9871 24.7192 27.5738 24.5125C27.2538 24.3459 27.1404 24.0892 27.2338 23.7426C27.3004 23.4892 27.4771 23.2726 27.7638 23.0926C28.0038 22.9392 28.2304 22.9025 28.4438 22.9825C28.6838 23.0692 28.8438 23.2559 28.9238 23.5425Z" fill="#08BEB7"/>
<path d="M24.8636 25.5927C24.8636 26.1444 24.6445 26.6734 24.2544 27.0635C23.8643 27.4536 23.3353 27.6727 22.7836 27.6727C22.232 27.6727 21.7029 27.4536 21.3128 27.0635C20.9227 26.6734 20.7036 26.1444 20.7036 25.5927C20.7036 25.0411 20.9227 24.512 21.3128 24.1219C21.7029 23.7318 22.232 23.5127 22.7836 23.5127C23.3353 23.5127 23.8643 23.7318 24.2544 24.1219C24.6445 24.512 24.8636 25.0411 24.8636 25.5927ZM23.7351 24.9107C23.5671 24.7194 23.3109 24.6194 23.023 24.6327C22.7352 24.646 22.4391 24.7715 22.2 24.9815C21.9609 25.1916 21.7984 25.469 21.7481 25.7528C21.6979 26.0366 21.7641 26.3034 21.9321 26.4947C22.1002 26.686 22.3563 26.786 22.6442 26.7727C22.9321 26.7594 23.2281 26.634 23.4672 26.4239C23.7063 26.2139 23.8688 25.9364 23.9191 25.6526C23.9693 25.3689 23.9031 25.102 23.7351 24.9107Z" fill="#6500B6"/>
<path d="M23.4675 26.4239C23.9654 25.9865 24.0854 25.309 23.7355 24.9106C23.3855 24.5123 22.6982 24.544 22.2003 24.9814C21.7025 25.4188 21.5825 26.0963 21.9324 26.4947C22.2824 26.893 22.9697 26.8613 23.4675 26.4239Z" fill="#08BEB7"/>
<path d="M19.9836 29.3526C19.9836 29.933 19.8692 30.5078 19.6471 31.0441C19.425 31.5803 19.0994 32.0676 18.689 32.478C18.2785 32.8885 17.7913 33.214 17.255 33.4362C16.7187 33.6583 16.144 33.7726 15.5636 33.7726C14.9831 33.7726 14.4083 33.6583 13.8721 33.4362C13.3358 33.214 12.8486 32.8885 12.4381 32.478C12.0277 32.0676 11.7021 31.5803 11.48 31.0441C11.2579 30.5078 11.1436 29.933 11.1436 29.3526C11.1436 28.1803 11.6092 27.0561 12.4381 26.2272C13.2671 25.3983 14.3913 24.9326 15.5636 24.9326C16.7358 24.9326 17.8601 25.3983 18.689 26.2272C19.5179 27.0561 19.9836 28.1803 19.9836 29.3526ZM16.0936 28.1626C15.9736 28.156 15.8735 28.0993 15.7935 27.9926C15.7799 27.9758 15.7698 27.9563 15.7639 27.9354C15.758 27.9145 15.7564 27.8927 15.7592 27.8712C15.762 27.8497 15.7691 27.8289 15.7802 27.8103C15.7913 27.7916 15.806 27.7754 15.8235 27.7626C16.0035 27.6359 16.0602 27.4926 15.9935 27.3326C15.6602 26.5593 15.1702 26.2593 14.5235 26.4326C14.1835 26.5193 13.9936 26.7359 13.9536 27.0826C13.8936 27.5559 14.0569 27.9126 14.4435 28.1526C15.0235 28.4993 14.9835 28.7059 14.3235 28.7726C13.9102 28.8126 13.5202 28.9359 13.1535 29.1426C12.8335 29.3226 12.6802 29.5959 12.6935 29.9626C12.7002 30.1026 12.7202 30.2393 12.7535 30.3726C12.8202 30.6126 12.9802 30.7259 13.2336 30.7126C14.1936 30.6459 14.9035 31.0293 15.3635 31.8626C15.4635 32.0426 15.6502 32.2293 15.9236 32.4226C16.0036 32.4826 16.0969 32.5193 16.2036 32.5326C16.5436 32.586 16.7769 32.4526 16.9035 32.1326C17.1102 31.6393 17.1302 31.1626 16.9635 30.7026C16.8235 30.3093 16.9469 30.0326 17.3335 29.8726L18.4536 29.4226C18.5687 29.3758 18.6698 29.3 18.747 29.2025C18.8241 29.105 18.8747 28.9892 18.8939 28.8664C18.913 28.7436 18.9 28.6178 18.8561 28.5015C18.8123 28.3852 18.739 28.2822 18.6436 28.2026C17.9036 27.5826 17.1169 27.546 16.2836 28.0926C16.2169 28.1393 16.1536 28.1626 16.0936 28.1626Z" fill="#FF05B0"/>
<path d="M16.2837 28.0924C17.117 27.5457 17.9037 27.5824 18.6437 28.2024C18.7392 28.282 18.8124 28.385 18.8563 28.5013C18.9001 28.6176 18.9131 28.7433 18.894 28.8661C18.8749 28.989 18.8243 29.1048 18.7471 29.2022C18.6699 29.2997 18.5689 29.3756 18.4537 29.4224L17.3337 29.8724C16.947 30.0324 16.8237 30.309 16.9637 30.7024C17.1303 31.1624 17.1103 31.639 16.9037 32.1324C16.777 32.4524 16.5437 32.5857 16.2037 32.5324C16.097 32.519 16.0037 32.4824 15.9237 32.4224C15.6503 32.229 15.4637 32.0424 15.3637 31.8624C14.9037 31.029 14.1937 30.6457 13.2337 30.7124C12.9803 30.7257 12.8203 30.6124 12.7537 30.3724C12.7203 30.239 12.7003 30.1024 12.6937 29.9624C12.6803 29.5957 12.8337 29.3224 13.1537 29.1424C13.5203 28.9357 13.9103 28.8124 14.3237 28.7724C14.9837 28.7057 15.0237 28.499 14.4437 28.1524C14.057 27.9124 13.8937 27.5557 13.9537 27.0824C13.9937 26.7357 14.1837 26.519 14.5237 26.4324C15.1703 26.259 15.6603 26.559 15.9937 27.3324C16.0603 27.4924 16.0037 27.6357 15.8237 27.7624C15.8061 27.7751 15.7914 27.7914 15.7803 27.81C15.7693 27.8287 15.7621 27.8494 15.7593 27.8709C15.7565 27.8925 15.7581 27.9143 15.764 27.9352C15.7699 27.9561 15.78 27.9755 15.7937 27.9924C15.8737 28.099 15.9737 28.1557 16.0937 28.1624C16.1537 28.1624 16.217 28.139 16.2837 28.0924Z" fill="#3D1AB6"/>
<path d="M26.3835 29.5225C26.0035 29.3225 25.8502 29.0125 25.9236 28.5925C25.9636 28.4058 26.0335 28.2224 26.1335 28.0424C26.3202 27.7224 26.5902 27.6191 26.9435 27.7325L27.5235 27.9125C27.7207 27.9779 27.8903 28.1075 28.0053 28.2805C28.1202 28.4536 28.1739 28.6601 28.1578 28.8672C28.1417 29.0744 28.0567 29.2701 27.9164 29.4233C27.7761 29.5765 27.5885 29.6783 27.3835 29.7125C27.0435 29.7658 26.7102 29.7025 26.3835 29.5225Z" fill="#6500B6"/>
<path d="M7.96368 31.4424C8.70368 33.7824 10.0003 35.4057 11.8537 36.3124L11.9837 38.1124C9.30369 37.8724 7.73702 35.7657 7.28369 31.7924C7.59702 32.0057 7.82368 31.889 7.96368 31.4424Z" fill="#6500B6"/>
<path d="M25.2839 34.5827C25.1572 34.3627 25.1672 34.206 25.3138 34.1127C26.1138 33.5327 26.9572 33.176 27.8438 33.0426C28.3438 32.9693 28.4072 33.106 28.0339 33.4526C27.3605 34.086 26.4439 34.4627 25.2839 34.5827Z" fill="#961CC1"/>
<path d="M25.3139 34.1127C25.1672 34.206 25.1572 34.3627 25.2839 34.5827C24.6905 35.1294 23.9539 35.4127 23.0739 35.4327C22.8405 35.3394 22.7138 35.176 22.6938 34.9427C23.0072 34.2894 23.8805 34.0127 25.3139 34.1127Z" fill="#FF05B0"/>
<path d="M22.6939 34.9424C22.7139 35.1757 22.8406 35.339 23.0739 35.4324L14.0339 38.0324C14.2273 37.6057 14.2239 37.1924 14.0239 36.7924L21.2839 35.0724C21.4944 35.0263 21.7167 35.0297 21.9339 35.0824C22.3206 35.1757 22.5739 35.129 22.6939 34.9424Z" fill="#6500B6"/>
<path d="M11.8535 36.3125L14.0235 36.7925C14.2235 37.1925 14.2269 37.6058 14.0335 38.0325L11.9835 38.1125L11.8535 36.3125Z" fill="#FF05B0"/>
</svg>
