<svg width="24" height="24" viewBox="0 0 24 24" fill="none" xmlns="http://www.w3.org/2000/svg">
<path fill-rule="evenodd" clip-rule="evenodd" d="M20 12C20 16.4183 16.4183 20 12 20C7.58172 20 4 16.4183 4 12C4 7.58172 7.58172 4 12 4C16.4183 4 20 7.58172 20 12ZM19 12C19 15.866 15.866 19 12 19C8.13401 19 5 15.866 5 12C5 8.13401 8.13401 5 12 5C15.866 5 19 8.13401 19 12Z" fill="black"/>
<path fill-rule="evenodd" clip-rule="evenodd" d="M21.071 23.9497L23.8994 21.1213L21.0429 18.2648C22.2769 16.487 23 14.328 23 12C23 5.92487 18.0752 1 12 1C5.92488 1 1 5.92487 1 12C1 18.0751 5.92488 23 12 23C14.302 23 16.4389 22.2929 18.2052 21.084L21.071 23.9497ZM20.2214 17.6946L19.745 18.3811L22.4852 21.1213L21.071 22.5355L18.3254 19.7899L17.6404 20.2587C16.0351 21.3574 14.0941 22 12 22C6.47716 22 2 17.5228 2 12C2 6.47715 6.47716 2 12 2C17.5229 2 22 6.47715 22 12C22 14.1177 21.3429 16.0789 20.2214 17.6946Z" fill="black"/>
</svg>
