<svg width="154" height="32" viewBox="0 0 154 32" fill="none" xmlns="http://www.w3.org/2000/svg">
<path d="M13.6934 32C11.3808 32 9.47357 31.75 7.97162 31.25C6.4935 30.7738 5.33724 30.131 4.50282 29.3215C3.6684 28.5119 3.0843 27.5834 2.75054 26.5357C2.44061 25.4881 2.28564 24.4048 2.28564 23.2857V6.6786C2.28564 6.36907 2.32141 6.10717 2.39293 5.89288C2.48829 5.6786 2.61941 5.50003 2.7863 5.35717L7.39945 1.46431C7.51865 1.36907 7.67361 1.29764 7.86434 1.25002C8.0789 1.1786 8.30539 1.14288 8.54379 1.14288H14.1582C14.7304 1.14288 15.1476 1.27384 15.4099 1.53574C15.6721 1.79765 15.8032 2.21431 15.8032 2.78574V19.0715C15.8032 19.2857 15.839 19.4881 15.9105 19.6786C15.982 19.8453 16.137 19.9762 16.3754 20.0715V6.6786C16.3754 6.36907 16.4112 6.10717 16.4827 5.89288C16.5542 5.6786 16.6615 5.51193 16.8045 5.39288L16.8403 5.35717L21.4892 1.46431C21.6084 1.36907 21.7634 1.29764 21.9541 1.25002C22.1448 1.1786 22.3713 1.14288 22.6336 1.14288H28.0692C28.6414 1.14288 29.0586 1.27384 29.3208 1.53574C29.5831 1.79765 29.7142 2.21431 29.7142 2.78574V20.4643C29.7142 21.5596 29.5592 22.5715 29.2493 23.5C28.9394 24.4286 28.3791 25.2262 27.5686 25.8929L22.9197 29.75C22.0852 30.4643 20.929 31.0119 19.4508 31.3929C17.9727 31.7976 16.0536 32 13.6934 32ZM29.3566 20.4643V2.78574C29.3566 2.33336 29.2493 2.01193 29.0348 1.82145C28.844 1.60717 28.5222 1.50003 28.0692 1.50003H22.6336C22.1806 1.50003 21.8468 1.60717 21.6323 1.82145C21.4415 2.01193 21.3462 2.33336 21.3462 2.78574V19.0715C21.3462 19.5476 21.1674 19.9524 20.8098 20.2857C20.4522 20.5953 19.6416 20.75 18.378 20.75C17.1383 20.75 16.3397 20.5953 15.982 20.2857C15.6244 19.9524 15.4456 19.5476 15.4456 19.0715V2.78574C15.4456 2.33336 15.3384 2.01193 15.1238 1.82145C14.9331 1.60717 14.6112 1.50003 14.1582 1.50003H8.54379C8.09082 1.50003 7.75705 1.60717 7.54249 1.82145C7.35176 2.01193 7.2564 2.33336 7.2564 2.78574V20.4643C7.2564 21.5596 7.41136 22.5595 7.72129 23.4643C8.05506 24.3453 8.62723 25.1072 9.43781 25.75C10.2722 26.3691 11.4047 26.8572 12.8351 27.2143C14.2655 27.5715 16.0893 27.75 18.3065 27.75C20.5237 27.75 22.3475 27.5715 23.7779 27.2143C25.2083 26.8572 26.3288 26.3691 27.1394 25.75C27.9738 25.1072 28.546 24.3453 28.8559 23.4643C29.1897 22.5595 29.3566 21.5596 29.3566 20.4643ZM11.1901 10.4286H11.5477V19.6072C11.5477 20.9405 12.0126 22.0238 12.9424 22.8572C13.896 23.6667 15.696 24.0715 18.3423 24.0715C20.9886 24.0715 22.7885 23.6667 23.7421 22.8572C24.6958 22.0238 25.1726 20.9405 25.1726 19.6072V10.4286H25.5302V19.6072C25.5302 21.0357 25.0295 22.2024 24.0282 23.1072C23.0269 23.9881 21.1316 24.4286 18.3423 24.4286C15.5529 24.4286 13.6576 23.9881 12.6563 23.1072C11.6788 22.2024 11.1901 21.0357 11.1901 19.6072V10.4286Z" fill="white"/>
<path fill-rule="evenodd" clip-rule="evenodd" d="M12.4828 4.27145V5.78002H14.0142V7.98002H12.4828V9.44288H10.2828L10.2828 7.98002H8.84279V5.78002H10.2828L10.2828 4.27145H12.4828ZM10.5828 6.08002H9.14279V7.68002H10.5828V9.14288H12.1828V7.68002H13.7142V6.08002H12.1828V4.57145H10.5828L10.5828 6.08002Z" fill="white"/>
<path fill-rule="evenodd" clip-rule="evenodd" d="M24.9856 7.54294C24.9856 8.21357 24.442 8.75722 23.7714 8.75722C23.1007 8.75722 22.5571 8.21357 22.5571 7.54294C22.5571 6.87231 23.1007 6.32865 23.7714 6.32865C24.442 6.32865 24.9856 6.87231 24.9856 7.54294ZM23.7714 8.45722C24.2763 8.45722 24.6856 8.04789 24.6856 7.54294C24.6856 7.03799 24.2763 6.62865 23.7714 6.62865C23.2664 6.62865 22.8571 7.03799 22.8571 7.54294C22.8571 8.04789 23.2664 8.45722 23.7714 8.45722Z" fill="white"/>
<path fill-rule="evenodd" clip-rule="evenodd" d="M28.1854 6.28568C28.1854 6.95632 27.6418 7.49997 26.9711 7.49997C26.3005 7.49997 25.7568 6.95632 25.7568 6.28568C25.7568 5.61505 26.3005 5.0714 26.9711 5.0714C27.6418 5.0714 28.1854 5.61505 28.1854 6.28568ZM26.9711 7.19997C27.4761 7.19997 27.8854 6.79063 27.8854 6.28568C27.8854 5.78074 27.4761 5.3714 26.9711 5.3714C26.4662 5.3714 26.0569 5.78074 26.0569 6.28568C26.0569 6.79063 26.4662 7.19997 26.9711 7.19997Z" fill="white"/>
<path d="M48.928 13.86V22.5H46.832L46.656 21.46C46.1973 22.26 45.312 22.66 44 22.66C42.9653 22.66 42.224 22.4254 41.776 21.956C41.328 21.476 41.104 20.7507 41.104 19.78V13.86H43.424V19.156C43.424 19.7427 43.52 20.1587 43.712 20.404C43.9147 20.6494 44.288 20.772 44.832 20.772C45.3013 20.772 45.6853 20.6814 45.984 20.5C46.2827 20.308 46.496 19.9987 46.624 19.572V13.86H48.928Z" fill="#F09E36"/>
<path d="M59.1818 10.34V22.5H57.0858L56.9098 21.3C56.5258 22.2067 55.6458 22.66 54.2698 22.66C53.3631 22.66 52.6591 22.484 52.1578 22.132C51.6564 21.7694 51.3044 21.268 51.1018 20.628C50.9098 19.9774 50.8138 19.1614 50.8138 18.18C50.8138 16.7827 51.0644 15.6894 51.5658 14.9C52.0671 14.1 52.9684 13.7 54.2698 13.7C55.0164 13.7 55.5924 13.8067 55.9978 14.02C56.4031 14.2334 56.6964 14.548 56.8778 14.964V10.34H59.1818ZM55.0058 20.9C55.7631 20.9 56.2804 20.6814 56.5578 20.244C56.8458 19.796 56.9898 19.108 56.9898 18.18C56.9898 17.284 56.8404 16.6014 56.5418 16.132C56.2538 15.6627 55.7418 15.428 55.0058 15.428C54.4938 15.428 54.1044 15.5507 53.8378 15.796C53.5818 16.0307 53.4111 16.3454 53.3258 16.74C53.2404 17.124 53.1978 17.604 53.1978 18.18C53.1978 18.7774 53.2404 19.268 53.3258 19.652C53.4111 20.036 53.5871 20.34 53.8538 20.564C54.1204 20.788 54.5044 20.9 55.0058 20.9Z" fill="#F09E36"/>
<path d="M66.5198 13.7L66.4558 15.764H66.2318C65.6238 15.764 65.1011 15.9027 64.6638 16.18C64.2264 16.4574 63.9491 16.9267 63.8318 17.588V22.5H61.5118V13.86H63.8318V15.412C64.0771 14.7614 64.4078 14.3134 64.8238 14.068C65.2504 13.8227 65.7571 13.7 66.3438 13.7H66.5198Z" fill="#F09E36"/>
<path d="M75.3286 17.492C75.3286 17.8867 75.302 18.2867 75.2486 18.692L69.6806 19.044C69.7233 19.6627 69.9313 20.116 70.3046 20.404C70.678 20.692 71.2486 20.836 72.0166 20.836C72.5286 20.836 73.0566 20.7774 73.6006 20.66C74.1553 20.532 74.582 20.388 74.8806 20.228V22.052C74.6033 22.212 74.1606 22.356 73.5526 22.484C72.9446 22.6014 72.2833 22.66 71.5686 22.66C70.6406 22.66 69.8673 22.5267 69.2486 22.26C68.6406 21.9934 68.1713 21.5347 67.8406 20.884C67.5206 20.2227 67.3606 19.3214 67.3606 18.18C67.3606 17.0387 67.526 16.1427 67.8566 15.492C68.1873 14.8307 68.662 14.3667 69.2806 14.1C69.8993 13.8334 70.6833 13.7 71.6326 13.7C72.5926 13.7 73.3446 13.8547 73.8886 14.164C74.4326 14.4734 74.806 14.9054 75.0086 15.46C75.222 16.004 75.3286 16.6814 75.3286 17.492ZM73.2166 17.156C73.2166 16.612 73.11 16.1907 72.8966 15.892C72.6833 15.5934 72.262 15.444 71.6326 15.444C70.9286 15.444 70.4326 15.5987 70.1446 15.908C69.8673 16.2067 69.7126 16.7134 69.6806 17.428L73.2166 17.156Z" fill="#F09E36"/>
<path d="M80.7996 13.716C82.2076 13.716 83.205 13.9454 83.7916 14.404C84.389 14.8627 84.6876 15.5667 84.6876 16.516V22.5H82.6076L82.3836 21.492C82.2023 21.8334 81.8663 22.116 81.3756 22.34C80.8956 22.5534 80.3143 22.66 79.6316 22.66C78.661 22.66 77.925 22.4414 77.4236 22.004C76.9223 21.5667 76.6716 20.9054 76.6716 20.02C76.6716 19.0494 76.965 18.356 77.5516 17.94C78.1383 17.5134 79.029 17.3 80.2236 17.3H82.3676V17.076C82.3676 16.7134 82.3196 16.4307 82.2236 16.228C82.1276 16.0254 81.9463 15.8814 81.6796 15.796C81.413 15.7 81.029 15.652 80.5276 15.652C79.8663 15.652 79.253 15.7054 78.6876 15.812V13.844C79.3916 13.7587 80.0956 13.716 80.7996 13.716ZM80.2236 20.884C80.7356 20.884 81.1783 20.7934 81.5516 20.612C81.9356 20.42 82.2076 20.1747 82.3676 19.876V18.868H80.5756C79.9783 18.868 79.557 18.9427 79.3116 19.092C79.077 19.2414 78.9596 19.524 78.9596 19.94C78.9596 20.2707 79.061 20.5107 79.2636 20.66C79.4663 20.8094 79.7863 20.884 80.2236 20.884Z" fill="#F09E36"/>
<path d="M96.9943 13.7C97.9756 13.7 98.7009 13.9454 99.1703 14.436C99.6396 14.9267 99.8743 15.7054 99.8743 16.772V22.5H97.5543V17.204C97.5543 16.6174 97.4529 16.2014 97.2503 15.956C97.0583 15.7107 96.7223 15.588 96.2423 15.588C95.7729 15.588 95.4049 15.6894 95.1383 15.892C94.8823 16.084 94.7009 16.404 94.5943 16.852V22.5H92.2743V17.204C92.2743 16.6174 92.1729 16.2014 91.9703 15.956C91.7783 15.7107 91.4529 15.588 90.9943 15.588C90.5249 15.588 90.1676 15.6787 89.9223 15.86C89.6876 16.0307 89.5116 16.3294 89.3943 16.756V22.5H87.0743V13.86H89.3943V14.836C89.6289 14.452 89.9383 14.1694 90.3223 13.988C90.7169 13.796 91.2183 13.7 91.8263 13.7C93.0849 13.7 93.9063 14.1054 94.2903 14.916C94.7276 14.1054 95.6289 13.7 96.9943 13.7Z" fill="#F09E36"/>
<path d="M110.136 13.86V21.828C110.136 23.0867 109.768 24.0467 109.032 24.708C108.296 25.3694 107.069 25.7 105.352 25.7C104.477 25.7 103.656 25.6307 102.888 25.492V23.652C103.603 23.8227 104.365 23.908 105.176 23.908C106.136 23.908 106.819 23.748 107.224 23.428C107.629 23.108 107.832 22.5427 107.832 21.732V21.268C107.651 21.6734 107.357 21.9827 106.952 22.196C106.547 22.3987 105.971 22.5 105.224 22.5C103.912 22.5 103 22.1267 102.488 21.38C101.976 20.6334 101.72 19.54 101.72 18.1C101.72 16.756 101.981 15.6894 102.504 14.9C103.027 14.1 103.933 13.7 105.224 13.7C105.981 13.7 106.557 13.8067 106.952 14.02C107.357 14.2334 107.651 14.548 107.832 14.964V13.86H110.136ZM105.912 20.804C106.467 20.804 106.888 20.7027 107.176 20.5C107.475 20.2867 107.677 19.9934 107.784 19.62C107.891 19.236 107.944 18.7294 107.944 18.1C107.944 17.492 107.891 17.0014 107.784 16.628C107.677 16.244 107.475 15.9507 107.176 15.748C106.888 15.5347 106.467 15.428 105.912 15.428C105.176 15.428 104.691 15.6627 104.456 16.132C104.221 16.6014 104.104 17.2574 104.104 18.1C104.104 18.9747 104.221 19.6467 104.456 20.116C104.701 20.5747 105.187 20.804 105.912 20.804Z" fill="white"/>
<path d="M116.081 13.716C117.489 13.716 118.486 13.9454 119.073 14.404C119.67 14.8627 119.969 15.5667 119.969 16.516V22.5H117.889L117.665 21.492C117.484 21.8334 117.148 22.116 116.657 22.34C116.177 22.5534 115.596 22.66 114.913 22.66C113.942 22.66 113.206 22.4414 112.705 22.004C112.204 21.5667 111.953 20.9054 111.953 20.02C111.953 19.0494 112.246 18.356 112.833 17.94C113.42 17.5134 114.31 17.3 115.505 17.3H117.649V17.076C117.649 16.7134 117.601 16.4307 117.505 16.228C117.409 16.0254 117.228 15.8814 116.961 15.796C116.694 15.7 116.31 15.652 115.809 15.652C115.148 15.652 114.534 15.7054 113.969 15.812V13.844C114.673 13.7587 115.377 13.716 116.081 13.716ZM115.505 20.884C116.017 20.884 116.46 20.7934 116.833 20.612C117.217 20.42 117.489 20.1747 117.649 19.876V18.868H115.857C115.26 18.868 114.838 18.9427 114.593 19.092C114.358 19.2414 114.241 19.524 114.241 19.94C114.241 20.2707 114.342 20.5107 114.545 20.66C114.748 20.8094 115.068 20.884 115.505 20.884Z" fill="white"/>
<path d="M132.275 13.7C133.257 13.7 133.982 13.9454 134.452 14.436C134.921 14.9267 135.156 15.7054 135.156 16.772V22.5H132.836V17.204C132.836 16.6174 132.734 16.2014 132.532 15.956C132.34 15.7107 132.004 15.588 131.523 15.588C131.054 15.588 130.686 15.6894 130.42 15.892C130.164 16.084 129.982 16.404 129.876 16.852V22.5H127.556V17.204C127.556 16.6174 127.454 16.2014 127.252 15.956C127.06 15.7107 126.734 15.588 126.275 15.588C125.806 15.588 125.449 15.6787 125.204 15.86C124.969 16.0307 124.793 16.3294 124.676 16.756V22.5H122.355V13.86H124.676V14.836C124.91 14.452 125.219 14.1694 125.604 13.988C125.998 13.796 126.499 13.7 127.107 13.7C128.366 13.7 129.188 14.1054 129.572 14.916C130.009 14.1054 130.91 13.7 132.275 13.7Z" fill="white"/>
<path d="M144.969 17.492C144.969 17.8867 144.943 18.2867 144.889 18.692L139.321 19.044C139.364 19.6627 139.572 20.116 139.945 20.404C140.319 20.692 140.889 20.836 141.657 20.836C142.169 20.836 142.697 20.7774 143.241 20.66C143.796 20.532 144.223 20.388 144.521 20.228V22.052C144.244 22.212 143.801 22.356 143.193 22.484C142.585 22.6014 141.924 22.66 141.209 22.66C140.281 22.66 139.508 22.5267 138.889 22.26C138.281 21.9934 137.812 21.5347 137.481 20.884C137.161 20.2227 137.001 19.3214 137.001 18.18C137.001 17.0387 137.167 16.1427 137.497 15.492C137.828 14.8307 138.303 14.3667 138.921 14.1C139.54 13.8334 140.324 13.7 141.273 13.7C142.233 13.7 142.985 13.8547 143.529 14.164C144.073 14.4734 144.447 14.9054 144.649 15.46C144.863 16.004 144.969 16.6814 144.969 17.492ZM142.857 17.156C142.857 16.612 142.751 16.1907 142.537 15.892C142.324 15.5934 141.903 15.444 141.273 15.444C140.569 15.444 140.073 15.5987 139.785 15.908C139.508 16.2067 139.353 16.7134 139.321 17.428L142.857 17.156Z" fill="white"/>
<path d="M149.192 22.596C148.158 22.596 147.246 22.5054 146.456 22.324V20.388C146.862 20.516 147.299 20.6174 147.768 20.692C148.238 20.756 148.67 20.788 149.064 20.788C149.587 20.788 149.955 20.7294 150.168 20.612C150.392 20.484 150.504 20.2547 150.504 19.924C150.504 19.6787 150.462 19.492 150.376 19.364C150.291 19.236 150.136 19.1294 149.912 19.044C149.688 18.948 149.331 18.8414 148.84 18.724C148.222 18.5747 147.747 18.404 147.416 18.212C147.096 18.02 146.872 17.7747 146.744 17.476C146.616 17.1774 146.552 16.7774 146.552 16.276C146.552 15.4334 146.824 14.7934 147.368 14.356C147.912 13.9187 148.792 13.7 150.008 13.7C150.467 13.7 150.915 13.7267 151.352 13.78C151.8 13.8334 152.142 13.9027 152.376 13.988L152.28 15.764C152.024 15.6787 151.683 15.604 151.256 15.54C150.84 15.476 150.451 15.444 150.088 15.444C149.566 15.444 149.208 15.5027 149.016 15.62C148.824 15.7374 148.728 15.9454 148.728 16.244C148.728 16.4254 148.766 16.564 148.84 16.66C148.926 16.756 149.064 16.8414 149.256 16.916C149.459 16.9907 149.816 17.092 150.328 17.22C150.968 17.38 151.454 17.5614 151.784 17.764C152.126 17.9667 152.366 18.2334 152.504 18.564C152.643 18.884 152.712 19.316 152.712 19.86C152.712 20.8414 152.414 21.5454 151.816 21.972C151.23 22.388 150.355 22.596 149.192 22.596Z" fill="white"/>
</svg>
