<svg width="46" height="43" viewBox="0 0 46 43" fill="none" xmlns="http://www.w3.org/2000/svg">
<g id="Search">
<g id="Group 1000001420">
<rect id="Rectangle 50" x="3" y="3" width="43" height="40" rx="8" fill="black"/>
<rect id="Rectangle 51" x="0.5" y="0.5" width="42" height="39" rx="7.5" fill="#FF05B0" stroke="black"/>
<path id="Vector" d="M16.1106 11.3486C16.2203 11.2381 16.3505 11.1504 16.494 11.0906C16.6374 11.0308 16.7911 11 16.9464 11C17.1016 11 17.2554 11.0308 17.3988 11.0906C17.5422 11.1504 17.6724 11.2381 17.7821 11.3486L25.7238 19.3307C25.8114 19.4185 25.8808 19.5228 25.9282 19.6377C25.9756 19.7525 26 19.8756 26 19.9999C26 20.1242 25.9756 20.2473 25.9282 20.3621C25.8808 20.4769 25.8114 20.5812 25.7238 20.669L17.7821 28.6512C17.3194 29.1163 16.5734 29.1163 16.1106 28.6512C15.6479 28.1861 15.6479 27.4363 16.1106 26.9712L23.042 20.0046L16.1012 13.0285C15.6479 12.5634 15.6479 11.8136 16.1106 11.3486Z" fill="black"/>
</g>
</g>
</svg>
